<svg width="18" height="18" viewBox="0 0 18 18" fill="none" xmlns="http://www.w3.org/2000/svg">
<mask id="mask0_14_229" style="mask-type:luminance" maskUnits="userSpaceOnUse" x="0" y="0" width="18" height="18">
<path d="M18 0H0V18H18V0Z" fill="white"/>
</mask>
<g mask="url(#mask0_14_229)">
<path fill-rule="evenodd" clip-rule="evenodd" d="M12.4343 2.2278C12.7467 1.92407 13.2533 1.92407 13.5657 2.2278L15.9657 4.56114C16.2781 4.86489 16.2781 5.35734 15.9657 5.66109L13.5657 7.99442C13.2533 8.29814 12.7467 8.29814 12.4343 7.99442C12.1219 7.6907 12.1219 7.19822 12.4343 6.89448L13.4686 5.88894H5.68146C3.96563 5.88894 2.60001 7.25398 2.60001 9.00001C2.60001 9.42958 2.24181 9.77779 1.79999 9.77779C1.35816 9.77779 1 9.42958 1 9.00001C1 6.45049 3.02584 4.33338 5.68146 4.33338H13.4686L12.4343 3.32775C12.1219 3.02401 12.1219 2.53155 12.4343 2.2278ZM16.2 8.22223C16.6418 8.22223 17 8.57044 17 9.00001C17 11.5887 14.782 13.6668 12.1662 13.6668H4.53143L5.5657 14.6723C5.87811 14.976 5.87811 15.4685 5.5657 15.7722C5.25327 16.0759 4.74673 16.0759 4.4343 15.7722L2.0343 13.4389C1.72189 13.1351 1.72189 12.6427 2.0343 12.3389L4.4343 10.0056C4.74673 9.70188 5.25327 9.70188 5.5657 10.0056C5.87811 10.3093 5.87811 10.8018 5.5657 11.1055L4.53131 12.1112H12.1662C13.9219 12.1112 15.4 10.7068 15.4 9.00001C15.4 8.57044 15.7582 8.22223 16.2 8.22223Z" fill="white"/>
</g>
</svg>
