<svg width="18" height="18" viewBox="0 0 18 18" fill="none" xmlns="http://www.w3.org/2000/svg">
<mask id="mask0_14_203" style="mask-type:luminance" maskUnits="userSpaceOnUse" x="0" y="0" width="18" height="18">
<path d="M18 0H0V18H18V0Z" fill="white"/>
</mask>
<g mask="url(#mask0_14_203)">
<path d="M15.5304 1.71967C15.2375 1.42678 14.7626 1.42678 14.4697 1.71967C14.1769 2.01256 14.1769 2.48743 14.4697 2.78033L15.4394 3.75H13.1251C11.5585 3.75 10.4082 4.43633 9.52529 5.39946C9.37289 5.56572 9.22769 5.74107 9.08887 5.92331C9.38219 6.42911 9.64409 6.94136 9.87907 7.41179C10.114 7.04361 10.3613 6.70733 10.6311 6.41304C11.2951 5.68867 12.0667 5.25 13.1251 5.25H15.4394L14.4697 6.21967C14.1769 6.51257 14.1769 6.98743 14.4697 7.28033C14.7626 7.5732 15.2375 7.5732 15.5304 7.28033L17.7804 5.03033C18.0733 4.73744 18.0733 4.26257 17.7804 3.96967L15.5304 1.71967Z" fill="white"/>
<path d="M5.79094 11.6234C6.02753 11.3297 6.2468 10.9962 6.45991 10.6313C6.7043 11.1056 6.97962 11.6129 7.29472 12.1138C7.18648 12.27 7.07476 12.4207 6.95906 12.5643C6.19145 13.5173 5.17646 14.2501 3.75 14.2501H0.75C0.335786 14.2501 0 13.9143 0 13.5001C0 13.0859 0.335786 12.7501 0.75 12.7501H3.75C4.57354 12.7501 5.19918 12.3579 5.79094 11.6234Z" fill="white"/>
<path d="M9.52523 12.6005C10.4081 13.5637 11.5584 14.25 13.125 14.25H15.4394L14.4697 15.2197C14.1768 15.5126 14.1768 15.9875 14.4697 16.2803C14.7626 16.5732 15.2375 16.5732 15.5303 16.2803L17.7803 14.0303C18.0732 13.7375 18.0732 13.2626 17.7803 12.9697L15.5303 10.7197C15.2375 10.4268 14.7626 10.4268 14.4697 10.7197C14.1768 11.0126 14.1768 11.4874 14.4697 11.7803L15.4394 12.75H13.125C12.0666 12.75 11.295 12.3113 10.631 11.587C9.93923 10.8323 9.39555 9.80152 8.82705 8.6646C8.7819 8.5743 8.73653 8.4831 8.69085 8.39138C8.18393 7.3733 7.64033 6.2815 6.95906 5.43575C6.19145 4.48285 5.17646 3.75 3.75 3.75H0.75C0.335786 3.75 0 4.08578 0 4.5C0 4.91422 0.335786 5.25 0.75 5.25H3.75C4.57355 5.25 5.19918 5.64215 5.79094 6.37675C6.36467 7.08897 6.8366 8.03498 7.36561 9.0954L7.48543 9.3354C8.04195 10.4485 8.67015 11.6678 9.52523 12.6005Z" fill="white"/>
</g>
</svg>
