<svg width="26" height="16" viewBox="0 0 26 16" fill="none" xmlns="http://www.w3.org/2000/svg">
<path d="M1.5 0.134048C1.46213 0.112182 1.42304 0.0928594 1.3827 0.0761261C1.3423 0.0593928 1.301 0.0454006 1.2588 0.0341339C1.2166 0.0228006 1.17383 0.0143184 1.1305 0.00865173C1.08717 0.0029184 1.04367 4.57764e-05 1 4.57764e-05C0.956333 4.57764e-05 0.912833 0.0029184 0.869499 0.00865173C0.826166 0.0143184 0.783399 0.0228006 0.741199 0.0341339C0.698999 0.0454006 0.657698 0.0593928 0.617298 0.0761261C0.576965 0.0928594 0.537867 0.112182 0.5 0.134048C0.462133 0.155848 0.425868 0.18005 0.391201 0.20665C0.356534 0.23325 0.323767 0.26199 0.2929 0.292923C0.261967 0.32379 0.2332 0.356584 0.2066 0.391251C0.18 0.425917 0.155799 0.462179 0.133999 0.500046C0.112132 0.537912 0.0928327 0.576991 0.0760994 0.617325C0.0593661 0.657725 0.0453662 0.699026 0.0340996 0.741226C0.0227662 0.783426 0.014265 0.826219 0.00859833 0.869553C0.00286499 0.912886 0 0.956379 0 1.00005V14.8564C0 14.9001 0.00286499 14.9436 0.00859833 14.987C0.014265 15.0303 0.0227662 15.0731 0.0340996 15.1153C0.0453662 15.1575 0.0593661 15.1987 0.0760994 15.2391C0.0928327 15.2795 0.112132 15.3186 0.133999 15.3564C0.155799 15.3943 0.18 15.4305 0.2066 15.4652C0.2332 15.4999 0.261967 15.5327 0.2929 15.5636C0.323767 15.5945 0.356534 15.6232 0.391201 15.6498C0.425868 15.6764 0.462133 15.7006 0.5 15.7225C0.537867 15.7443 0.576965 15.7636 0.617298 15.7803C0.657698 15.797 0.698999 15.8111 0.741199 15.8224C0.783399 15.8337 0.826166 15.8422 0.869499 15.8479C0.912833 15.8536 0.956333 15.8564 1 15.8564C1.04367 15.8564 1.08717 15.8536 1.1305 15.8479C1.17383 15.8422 1.2166 15.8337 1.2588 15.8224C1.301 15.8111 1.3423 15.797 1.3827 15.7803C1.42304 15.7636 1.46213 15.7443 1.5 15.7225L13.5 8.79425C13.5378 8.7724 13.5741 8.74819 13.6088 8.72159C13.6434 8.69499 13.6762 8.66624 13.7071 8.63535C13.738 8.60445 13.7668 8.57167 13.7934 8.537C13.82 8.50234 13.8442 8.46608 13.866 8.42824C13.8879 8.3904 13.9072 8.35129 13.9239 8.31091C13.9406 8.27055 13.9546 8.22926 13.9659 8.18706C13.9772 8.14485 13.9857 8.10208 13.9914 8.05876C13.9971 8.01543 14 7.97193 14 7.92824C14 7.88457 13.9971 7.84108 13.9914 7.79774C13.9857 7.75441 13.9772 7.71165 13.9659 7.66945C13.9546 7.62725 13.9406 7.58595 13.9239 7.54555C13.9072 7.50521 13.8879 7.4661 13.866 7.42824C13.8442 7.39037 13.82 7.35411 13.7934 7.31944C13.7668 7.28478 13.738 7.25201 13.7071 7.22115C13.6762 7.19021 13.6434 7.16144 13.6088 7.13484C13.5741 7.10824 13.5378 7.08404 13.5 7.06224L1.5 0.134048Z" fill="white"/>
<path d="M13.5 0.134064C13.4621 0.112197 13.423 0.0928747 13.3827 0.0761414C13.3423 0.059408 13.301 0.0454158 13.2588 0.0341492C13.2166 0.0228158 13.1738 0.0143337 13.1305 0.00866699C13.0872 0.00293366 13.0437 6.10352e-05 13 6.10352e-05C12.9563 6.10352e-05 12.9128 0.00293366 12.8695 0.00866699C12.8262 0.0143337 12.7834 0.0228158 12.7412 0.0341492C12.699 0.0454158 12.6577 0.059408 12.6173 0.0761414C12.577 0.0928747 12.5379 0.112197 12.5 0.134064C12.4621 0.155864 12.4259 0.180065 12.3912 0.206665C12.3565 0.233265 12.3238 0.262005 12.2929 0.292938C12.262 0.323805 12.2332 0.356599 12.2066 0.391266C12.18 0.425933 12.1558 0.462194 12.134 0.500061C12.1121 0.537928 12.0928 0.577007 12.0761 0.61734C12.0594 0.65774 12.0454 0.699041 12.0341 0.741241C12.0228 0.783441 12.0143 0.826235 12.0086 0.869568C12.0029 0.912901 12 0.956394 12 1.00006V14.8564C12 14.9001 12.0029 14.9436 12.0086 14.987C12.0143 15.0303 12.0228 15.0731 12.0341 15.1153C12.0454 15.1575 12.0594 15.1988 12.0761 15.2391C12.0928 15.2795 12.1121 15.3186 12.134 15.3564C12.1558 15.3943 12.18 15.4305 12.2066 15.4652C12.2332 15.4999 12.262 15.5327 12.2929 15.5636C12.3238 15.5945 12.3565 15.6232 12.3912 15.6498C12.4259 15.6764 12.4621 15.7006 12.5 15.7225C12.5379 15.7443 12.577 15.7636 12.6173 15.7803C12.6577 15.7971 12.699 15.8111 12.7412 15.8224C12.7834 15.8337 12.8262 15.8422 12.8695 15.8479C12.9128 15.8536 12.9563 15.8564 13 15.8564C13.0437 15.8564 13.0872 15.8536 13.1305 15.8479C13.1738 15.8422 13.2166 15.8337 13.2588 15.8224C13.301 15.8111 13.3423 15.7971 13.3827 15.7803C13.423 15.7636 13.4621 15.7443 13.5 15.7225L25.5 8.79428C25.5378 8.77243 25.5741 8.74819 25.6088 8.72159C25.6434 8.69499 25.6762 8.66627 25.7071 8.63538C25.738 8.60448 25.7668 8.57168 25.7934 8.53702C25.82 8.50235 25.8442 8.46609 25.866 8.42825C25.8879 8.39041 25.9072 8.35132 25.9239 8.31094C25.9406 8.27058 25.9546 8.22928 25.9659 8.18707C25.9772 8.14487 25.9857 8.1021 25.9914 8.05878C25.9971 8.01545 26 7.97195 26 7.92825C26 7.88459 25.9971 7.84109 25.9914 7.79776C25.9857 7.75443 25.9772 7.71166 25.9659 7.66946C25.9546 7.62726 25.9406 7.58596 25.9239 7.54556C25.9072 7.50523 25.8879 7.46612 25.866 7.42825C25.8442 7.39039 25.82 7.35412 25.7934 7.31946C25.7668 7.28479 25.738 7.25203 25.7071 7.22116C25.6762 7.19023 25.6434 7.16146 25.6088 7.13486C25.5741 7.10826 25.5378 7.08406 25.5 7.06226L13.5 0.134064Z" fill="white"/>
</svg>
