<svg width="26" height="16" viewBox="0 0 26 16" fill="none" xmlns="http://www.w3.org/2000/svg">
<path d="M24.5 15.7224C24.5379 15.7443 24.577 15.7636 24.6173 15.7803C24.6577 15.797 24.699 15.811 24.7412 15.8223C24.7834 15.8336 24.8262 15.8421 24.8695 15.8478C24.9128 15.8535 24.9563 15.8564 25 15.8564C25.0437 15.8564 25.0872 15.8535 25.1305 15.8478C25.1738 15.8421 25.2166 15.8336 25.2588 15.8223C25.301 15.811 25.3423 15.797 25.3827 15.7803C25.423 15.7636 25.4621 15.7443 25.5 15.7224C25.5379 15.7006 25.5741 15.6764 25.6088 15.6498C25.6435 15.6232 25.6762 15.5944 25.7071 15.5635C25.738 15.5326 25.7668 15.4999 25.7934 15.4652C25.82 15.4305 25.8442 15.3943 25.866 15.3564C25.8879 15.3185 25.9072 15.2794 25.9239 15.2391C25.9406 15.1987 25.9546 15.1574 25.9659 15.1152C25.9772 15.073 25.9857 15.0302 25.9914 14.9869C25.9971 14.9436 26 14.9001 26 14.8564V1C26 0.9563 25.9971 0.912789 25.9914 0.869469C25.9857 0.826149 25.9772 0.783387 25.9659 0.74118C25.9546 0.698974 25.9406 0.657683 25.9239 0.61731C25.9072 0.576943 25.8879 0.53784 25.866 0.5C25.8442 0.462153 25.82 0.425903 25.7934 0.391243C25.7668 0.356576 25.738 0.323792 25.7071 0.292892C25.6762 0.261992 25.6435 0.233242 25.6088 0.206642C25.5741 0.180042 25.5379 0.155819 25.5 0.133972C25.4621 0.112126 25.423 0.0928385 25.3827 0.0761185C25.3423 0.0593918 25.301 0.0453795 25.2588 0.0340729C25.2166 0.0227662 25.1738 0.0142592 25.1305 0.00855255C25.0872 0.00285255 25.0437 0 25 0C24.9563 0 24.9128 0.00285255 24.8695 0.00855255C24.8262 0.0142592 24.7834 0.0227662 24.7412 0.0340729C24.699 0.0453795 24.6577 0.0593918 24.6173 0.0761185C24.577 0.0928385 24.5379 0.112126 24.5 0.133972L12.5 7.06218C12.4622 7.08403 12.4259 7.10825 12.3912 7.13485C12.3566 7.16145 12.3238 7.1902 12.2929 7.22109C12.262 7.25199 12.2332 7.28478 12.2066 7.31944C12.18 7.35411 12.1558 7.39036 12.134 7.4282C12.1121 7.46604 12.0928 7.50514 12.0761 7.54552C12.0594 7.58588 12.0454 7.62717 12.0341 7.66938C12.0228 7.71159 12.0143 7.75435 12.0086 7.79767C12.0029 7.841 12 7.88451 12 7.9282C12 7.97187 12.0029 8.01537 12.0086 8.0587C12.0143 8.10203 12.0228 8.1448 12.0341 8.187C12.0454 8.2292 12.0594 8.2705 12.0761 8.3109C12.0928 8.35123 12.1121 8.39033 12.134 8.4282C12.1558 8.46607 12.18 8.50234 12.2066 8.537C12.2332 8.57167 12.262 8.60443 12.2929 8.6353C12.3238 8.66623 12.3566 8.695 12.3912 8.7216C12.4259 8.7482 12.4622 8.7724 12.5 8.7942L24.5 15.7224Z" fill="white"/>
<path d="M12.5 15.7224C12.5379 15.7443 12.577 15.7636 12.6173 15.7803C12.6577 15.797 12.699 15.811 12.7412 15.8223C12.7834 15.8336 12.8262 15.8421 12.8695 15.8478C12.9128 15.8535 12.9563 15.8564 13 15.8564C13.0437 15.8564 13.0872 15.8535 13.1305 15.8478C13.1738 15.8421 13.2166 15.8336 13.2588 15.8223C13.301 15.811 13.3423 15.797 13.3827 15.7803C13.423 15.7636 13.4621 15.7443 13.5 15.7224C13.5379 15.7006 13.5741 15.6764 13.6088 15.6498C13.6435 15.6232 13.6762 15.5944 13.7071 15.5635C13.738 15.5326 13.7668 15.4999 13.7934 15.4652C13.82 15.4305 13.8442 15.3943 13.866 15.3564C13.8879 15.3185 13.9072 15.2794 13.9239 15.2391C13.9406 15.1987 13.9546 15.1574 13.9659 15.1152C13.9772 15.073 13.9857 15.0302 13.9914 14.9869C13.9971 14.9436 14 14.9001 14 14.8564V1C14 0.9563 13.9971 0.912789 13.9914 0.869469C13.9857 0.826149 13.9772 0.783387 13.9659 0.74118C13.9546 0.698974 13.9406 0.657683 13.9239 0.61731C13.9072 0.576943 13.8879 0.53784 13.866 0.5C13.8442 0.462153 13.82 0.425903 13.7934 0.391243C13.7668 0.356576 13.738 0.323792 13.7071 0.292892C13.6762 0.261992 13.6435 0.233242 13.6088 0.206642C13.5741 0.180042 13.5379 0.155819 13.5 0.133972C13.4621 0.112126 13.423 0.0928385 13.3827 0.0761185C13.3423 0.0593918 13.301 0.0453795 13.2588 0.0340729C13.2166 0.0227662 13.1738 0.0142592 13.1305 0.00855255C13.0872 0.00285255 13.0437 0 13 0C12.9563 0 12.9128 0.00285255 12.8695 0.00855255C12.8262 0.0142592 12.7834 0.0227662 12.7412 0.0340729C12.699 0.0453795 12.6577 0.0593918 12.6173 0.0761185C12.577 0.0928385 12.5379 0.112126 12.5 0.133972L0.5 7.06219C0.46216 7.08403 0.425907 7.10825 0.39124 7.13485C0.356573 7.16145 0.32379 7.1902 0.29289 7.22109C0.261996 7.25199 0.23325 7.28477 0.20665 7.31944C0.18005 7.3541 0.155824 7.39036 0.13397 7.4282C0.112124 7.46604 0.0928404 7.50515 0.0761204 7.54552C0.0594004 7.58589 0.0453833 7.62717 0.03407 7.66938C0.0227633 7.71159 0.0142602 7.75436 0.00856018 7.79768C0.00285351 7.841 0 7.88451 0 7.9282C0 7.97187 0.00285351 8.01536 0.00856018 8.05869C0.0142602 8.10203 0.0227633 8.1448 0.03407 8.187C0.0453833 8.2292 0.0594004 8.27051 0.0761204 8.31091C0.0928404 8.35124 0.112124 8.39033 0.13397 8.4282C0.155824 8.46607 0.18005 8.50233 0.20665 8.53699C0.23325 8.57166 0.261996 8.60444 0.29289 8.63531C0.32379 8.66624 0.356573 8.695 0.39124 8.7216C0.425907 8.7482 0.46216 8.7724 0.5 8.7942L12.5 15.7224Z" fill="white"/>
</svg>
